<?xml version="1.0" encoding="utf-8"?>
<!-- Generator: Adobe Illustrator 24.0.0, SVG Export Plug-In . SVG Version: 6.00 Build 0)  -->
<svg version="1.1" id="Layer_1" xmlns="http://www.w3.org/2000/svg" xmlns:xlink="http://www.w3.org/1999/xlink" x="0px" y="0px"
	 viewBox="0 0 800 1131.6" style="enable-background:new 0 0 800 1131.6;" xml:space="preserve">
<style type="text/css">
	.st0{clip-path:url(#SVGID_2_);enable-background:new    ;}
	.st1{opacity:0.3;}
	.st2{fill:#FFFFFF;}
	.st3{opacity:0.15;fill:url(#SVGID_3_);enable-background:new    ;}
	.st4{fill:none;}
	.st5{opacity:0.15;fill:url(#SVGID_4_);enable-background:new    ;}
	.st6{opacity:0.15;fill:url(#SVGID_5_);enable-background:new    ;}
	.st7{fill:none;stroke:url(#SVGID_6_);stroke-miterlimit:10;}
	.st8{fill:#CEB98E;}
	.st9{font-family:'Roboto-Bold';}
	.st10{font-size:16px;}
	.st11{opacity:0.2;}
	.st12{font-size:18px;}
	.st13{fill:url(#SVGID_7_);}
	.st14{fill:none;stroke:#FFFFFF;stroke-width:0.5;stroke-linecap:round;stroke-miterlimit:10;}
	.st15{opacity:0.5;}
	.st16{font-family:'Roboto-Light';}
	.st17{font-size:14px;}
	.st18{fill:url(#SVGID_8_);}
	.st19{fill:url(#SVGID_9_);}
	.st20{opacity:0.5;fill:url(#SVGID_10_);enable-background:new    ;}
	.st21{fill:url(#SVGID_11_);}
	.st22{fill:url(#SVGID_12_);}
	.st23{fill:url(#SVGID_13_);}
	.st24{fill:url(#SVGID_14_);}
	.st25{fill:url(#SVGID_15_);}
	.st26{fill:url(#SVGID_16_);}
	.st27{fill:url(#SVGID_17_);}
	.st28{opacity:0.1;fill:url(#SVGID_18_);enable-background:new    ;}
	
		.st29{opacity:0.3;fill:none;stroke:url(#SVGID_19_);stroke-width:0.5;stroke-linecap:round;stroke-linejoin:round;stroke-miterlimit:10;enable-background:new    ;}
	.st30{fill:#C90100;}
	.st31{opacity:0.1;fill:url(#SVGID_20_);enable-background:new    ;}
	
		.st32{opacity:0.3;fill:none;stroke:url(#SVGID_21_);stroke-width:0.5;stroke-linecap:round;stroke-linejoin:round;stroke-miterlimit:10;enable-background:new    ;}
	
		.st33{opacity:0.5;fill:none;stroke:#FFFFFF;stroke-linecap:round;stroke-miterlimit:10;stroke-dasharray:0,2;enable-background:new    ;}
	.st34{fill:#B3B3B3;}
	.st35{opacity:5.000000e-02;fill:url(#SVGID_22_);enable-background:new    ;}
	.st36{opacity:0.1;fill:url(#SVGID_23_);enable-background:new    ;}
	.st37{opacity:0.1;enable-background:new    ;}
	.st38{fill:url(#SVGID_24_);}
	.st39{opacity:5.000000e-02;fill:url(#SVGID_25_);enable-background:new    ;}
	.st40{opacity:5.000000e-02;fill:url(#SVGID_26_);enable-background:new    ;}
	
		.st41{opacity:0.3;fill:none;stroke:url(#SVGID_27_);stroke-width:0.5;stroke-linecap:round;stroke-linejoin:round;stroke-miterlimit:10;enable-background:new    ;}
	.st42{opacity:0.3;enable-background:new    ;}
	.st43{fill:none;stroke:url(#SVGID_28_);stroke-width:0.5;stroke-linecap:round;stroke-linejoin:round;stroke-miterlimit:10;}
	.st44{opacity:5.000000e-02;fill:url(#SVGID_29_);enable-background:new    ;}
	.st45{opacity:0.8;fill:#110C0F;enable-background:new    ;}
</style>
<g>
	<defs>
		<path id="SVGID_1_" d="M309.4,392.4c0,0-54.2-116.4,48.6-192.1s179.6-5.6,179.6-5.6s77.9,68.9,50.8,161.5c0,0-4.5,27.1-11.3,36.2
			c-6.8,9-15.8,20.3-15.8,20.3l-6.8,22.9l-6.8,7.6l-1.1,41.8c0,0-6.8,15.8-33.9,9c0,0,1.1,15.8-3.4,21.5c-4.5,5.6-14.7,9.8-14.7,9.8
			s-3.4,10.5-11.3,11.7s-15.8,0-15.8,0s-9,39.4-76.8,0.5c0,0-24.9,2.9-1.1,68.4c23.7,65.5,12.4,66.7,10.2,83.6
			c-2.3,16.9,37.3,93.8,37.3,93.8s63.3-44.1,74.6-62.1c11.3-18.1,72.3,13.6,72.3,13.6s98.3-27.7,108.5-34.2
			c10.2-6.5,12.4,24,12.4,24l-26,21.1l-31.6,18.4l-3.4,19.2l-3.4,13.6l-7.9,24.9l-2.3,19.1l-96,36.6c0,0-84.7,120.5-166.1,125.1
			C286.8,1007,123,830.7,125.3,717.7c2.3-113,38.4-161.5,49.7-176.2C186.3,526.8,309.4,392.4,309.4,392.4z"/>
	</defs>
	<clipPath id="SVGID_2_">
		<use xlink:href="#SVGID_1_"  style="overflow:visible;"/>
	</clipPath>
	<g class="st0">
		
			<image style="overflow:visible;" width="1220" height="1830" xlink:href="../woman-mobile.png"  transform="matrix(0.5003 0 0 0.5071 100.7975 129.9588)">
		</image>
	</g>
</g>
<g class="st1">
	<path class="st2" d="M376.9,694.2c1.7-8.9,3.6-17.7,5-26.6c1.4-8.9,2.5-17.9,3-26.9c0.2-4.5,0.4-9,0.4-13.5c0.1-4.5,0-9-0.4-13.5
		c-0.8-8.9-2.9-17.8-7.1-25.8c-2.1-4-4.7-7.6-7.6-11.1c-1.4-1.7-2.9-3.4-4.4-5.1c-1.5-1.7-2.9-3.5-4.1-5.4c-0.6-1-1.1-2-1.5-3.1
		c-0.3-1.1-0.6-2.3-0.6-3.4c-0.1-2.3,0.5-4.6,1.3-6.7c1.6-4.3,3.9-8.2,6.4-12c2.6-3.7,5.4-7.2,8.5-10.6c1.5-1.7,3.1-3.3,4.7-4.9
		c0.8-0.8,1.7-1.5,2.5-2.3c0.4-0.4,0.9-0.7,1.3-1c0.4-0.5,0.9-0.9,1.5-0.9c-0.6,0.1-1,0.5-1.5,0.8s-0.9,0.7-1.3,1.1
		c-0.9,0.7-1.7,1.5-2.5,2.3c-1.6,1.6-3.1,3.2-4.6,4.9c-3,3.4-5.7,7-8.2,10.7s-4.8,7.7-6.2,11.9c-0.7,2.1-1.3,4.3-1.2,6.5
		c0,1.1,0.3,2.2,0.6,3.2c0.4,1,0.8,2,1.5,3c1.2,1.9,2.6,3.6,4.1,5.3s3,3.4,4.4,5.1c2.9,3.5,5.6,7.2,7.7,11.2
		c4.3,8,6.5,17.1,7.3,26.1c0.4,4.5,0.5,9.1,0.4,13.6c0,4.5-0.2,9-0.5,13.6c-0.6,9-1.6,18-3.1,27"/>
</g>
<linearGradient id="SVGID_3_" gradientUnits="userSpaceOnUse" x1="230.2152" y1="3826.228" x2="230.2152" y2="4184.4648" gradientTransform="matrix(1 0 0 -1 0 4547.2754)">
	<stop  offset="0" style="stop-color:#FFFFFF"/>
	<stop  offset="0.1413" style="stop-color:#FFFFFF;stop-opacity:0.9435"/>
	<stop  offset="1" style="stop-color:#FFFFFF;stop-opacity:0.6"/>
</linearGradient>
<path class="st3" d="M330.9,378.7c0,0-1.4,32.8-37.6,81s-59.5,90.9-45.5,124.1c0,0-21.1,20.8-27.9,31.8c0,0-51.2,8.6-69.8,52.5
	S129.5,721,129.5,721s13.8-93.7,36.2-133.3c35-61.9,30.3-49.5,83.2-104.6S322,415,312,378.1c0,0,5.6-14.2,9.4-15.3
	c2.1-0.6,2.7,6.3,6.6,8.6C329.5,372.3,329.1,377.2,330.9,378.7z"/>
<g>
	<path class="st4" d="M-258.3,523.1"/>
</g>
<g class="st1">
	<path class="st2" d="M129.7,761.7c-0.8-22.8,0.9-45.6,4.1-68.1c1.6-11.3,3.7-22.5,6.2-33.6s5.5-22.1,9-33s7.6-21.5,12.3-31.9
		c1.2-2.6,2.3-5.2,3.6-7.8l3.8-7.7c1.3-2.6,2.7-5,4.1-7.5l2.1-3.7l2.2-3.7c5.7-9.9,12.4-19.2,19.4-28.1l5.5-6.6
		c1.9-2.2,3.8-4.2,5.8-6.3l2.9-3.1c1-1,2-2,3.1-3l6.1-5.9c-16.5,15.7-30.7,33.8-42.2,53.4l-2.2,3.7l-2,3.7c-1.3,2.5-2.8,5-4,7.5
		l-3.8,7.7c-1.3,2.5-2.3,5.2-3.5,7.8c-4.6,10.4-8.6,21-12.1,31.9c-3.5,10.8-6.6,21.8-9.2,32.9c-2.5,11.1-4.6,22.3-6.3,33.5
		c-1.7,11.3-2.9,22.6-3.7,33.9C129.9,738.9,129.4,750.3,129.7,761.7z"/>
</g>
<g class="st1">
	<path class="st2" d="M234.8,496.1c4.7-4.3,9.4-8.6,14.1-13c4.7-4.3,9.3-8.7,13.9-13.2c9.1-8.9,18.1-18,26.4-27.6
		c4.2-4.8,8.2-9.7,11.9-14.9c1.8-2.6,3.5-5.3,5-8.1c1.5-2.8,2.6-5.7,3.6-8.8c2-6,3.8-12.2,4.5-18.5c0.3-3.1,0.4-6.4-0.4-9.4
		c-0.4-1.5-1.1-3-1.9-4.4c-0.9-1.3-1.9-2.6-3-3.7c1.1,1.1,2.2,2.3,3.1,3.6c0.9,1.4,1.6,2.8,2,4.4c0.9,3.1,0.9,6.4,0.6,9.6
		c-0.7,6.4-2.4,12.6-4.3,18.7c-0.5,1.5-0.9,3.1-1.5,4.6c-0.5,1.5-1.3,3-2,4.4c-1.5,2.8-3.2,5.5-5,8.2c-3.6,5.3-7.7,10.2-11.9,15.1
		c-8.4,9.6-17.4,18.7-26.6,27.5c-4.6,4.4-9.3,8.7-14.1,13C244.4,487.7,239.6,491.9,234.8,496.1z"/>
</g>
<linearGradient id="SVGID_4_" gradientUnits="userSpaceOnUse" x1="300.4152" y1="4083.3779" x2="400.9152" y2="4083.3779" gradientTransform="matrix(1 0 0 -1 0 4547.2754)">
	<stop  offset="0" style="stop-color:#FFFFFF"/>
	<stop  offset="0.1413" style="stop-color:#FFFFFF;stop-opacity:0.9435"/>
	<stop  offset="1" style="stop-color:#FFFFFF;stop-opacity:0.6"/>
</linearGradient>
<path class="st5" d="M300.4,544.9c0,0,0-26.1,1.8-46.1c1.8-20,8.7-34.5,24.7-59.1c16-24.7,22.1-47.1,22.1-56.9c0,0,14.6,1.1,24,13.4
	s19.9,24.3,27.9,24.7c0,0-5.4,1.1-8.7,6.2c-3.3,5.1-21.4,41.1-28.3,46.8s-11.7,14-12.2,19.3c0,0-18.3,14.4-27.7,28.9
	C314.5,536.5,300.4,544.9,300.4,544.9z"/>
<linearGradient id="SVGID_5_" gradientUnits="userSpaceOnUse" x1="361.6817" y1="3930.2278" x2="386.143" y2="3930.2278" gradientTransform="matrix(1 0 0 -1 0 4547.2754)">
	<stop  offset="0" style="stop-color:#FFFFFF"/>
	<stop  offset="7.960000e-02" style="stop-color:#FFFFFF;stop-opacity:0.7"/>
	<stop  offset="8.830000e-02" style="stop-color:#FFFFFF;stop-opacity:0.7344"/>
	<stop  offset="0.1413" style="stop-color:#FFFFFF;stop-opacity:0.9435"/>
	<stop  offset="1" style="stop-color:#FFFFFF;stop-opacity:0.6"/>
</linearGradient>
<path class="st6" d="M361.7,566.3c0,0-1.8,71.4,21,101.4c0,0,8.8-60.2-1.8-75.6C370.2,576.8,361.7,566.3,361.7,566.3z"/>
<g>
	
		<linearGradient id="SVGID_6_" gradientUnits="userSpaceOnUse" x1="2886.5088" y1="-3943.9949" x2="3006.0686" y2="-3943.9949" gradientTransform="matrix(0.4579 -0.889 0.889 0.4579 2353.5308 5164.0186)">
		<stop  offset="0" style="stop-color:#FFFFFF;stop-opacity:0"/>
		<stop  offset="0.9982" style="stop-color:#CEB98E"/>
	</linearGradient>
	<path class="st7" d="M192.9,670.2c25.6,40,29.9,92.1,6.6,137.4"/>
	<g>
		<polygon class="st8" points="188,674.2 188.3,662.1 198.5,668.1 		"/>
	</g>
</g>
<g>
	<g>
		<text transform="matrix(1 0 0 1 142.8263 826.6925)" class="st2 st9 st10">Curvatura de la </text>
		<text transform="matrix(1 0 0 1 142.8263 845.8925)" class="st2 st9 st10">columna vertebral</text>
	</g>
</g>
<g class="st11">
	<path class="st2" d="M254.2,574.8c6.7-4,13.3-8.2,19.8-12.5s12.9-8.7,19.2-13.3c6.3-4.6,12.4-9.4,18.3-14.5s11.3-10.6,16.4-16.6
		c5.1-5.9,10-12,15.3-17.7s11.1-11.1,17.8-15.2c6.6-4.2,14-7.1,21.6-8.9c1.9-0.5,3.8-0.8,5.8-1.1c1.9-0.3,3.9-0.6,5.8-0.7
		c3.9-0.4,7.8-0.5,11.7-0.6c-3.9,0.1-7.8,0.3-11.7,0.8c-1.9,0.2-3.9,0.6-5.8,0.9c-1.9,0.4-3.8,0.7-5.7,1.3
		c-7.6,1.8-14.8,4.9-21.3,9.1c-6.5,4.2-12.3,9.4-17.6,15.2c-5.3,5.7-10.1,11.8-15.2,17.7S318,530.2,312,535.3
		c-5.9,5.1-12.1,9.9-18.4,14.4C281,558.7,267.8,567,254.2,574.8z"/>
</g>
<g>
	<g>
		<text transform="matrix(1 0 0 1 434.1664 146.8432)" class="st2 st9 st10">Dolor de cabeza </text>
		<text transform="matrix(1 0 0 1 457.9149 166.0431)" class="st2 st9 st12">crónico</text>
	</g>
</g>
<g>
	<g>
		<text transform="matrix(1 0 0 1 288.3355 640.342)" class="st2 st9 st10">Daño en </text>
		<text transform="matrix(1 0 0 1 288.3355 659.542)" class="st2 st9 st10">el nervio</text>
	</g>
</g>
<linearGradient id="SVGID_7_" gradientUnits="userSpaceOnUse" x1="207.5152" y1="-2003.6768" x2="232.4152" y2="-2003.6768" gradientTransform="matrix(1 0 0 1 0 2634.7244)">
	<stop  offset="0" style="stop-color:#FFFFFF"/>
	<stop  offset="1" style="stop-color:#FFFFFF;stop-opacity:0"/>
</linearGradient>
<path class="st13" d="M232.4,638.2c0,0-16.3,0-24.9-9.1c0,0,9.9,4.4,12.4,2.4c0,0,0.1-3.7-0.9-7.7c2.9,5.5,5.3,8.9,9.1,11.3
	L232.4,638.2z"/>
<line class="st14" x1="227.4" y1="636.6" x2="281" y2="636.6"/>
<line class="st14" x1="248" y1="444.4" x2="309.6" y2="444.4"/>
<g class="st15">
	<g>
		<text transform="matrix(1 0 0 1 619.7495 333.4867)" class="st2 st16 st17">Dificultad </text>
		<text transform="matrix(1 0 0 1 619.7495 350.2867)" class="st2 st16 st17">para girar</text>
		<text transform="matrix(1 0 0 1 619.7495 367.0866)" class="st2 st16 st17">la cabeza</text>
	</g>
</g>
<g class="st15">
	<g>
		<text transform="matrix(1 0 0 1 118.0313 549.3687)" class="st2 st16 st17">Tensión</text>
		<text transform="matrix(1 0 0 1 109.6313 566.1687)" class="st2 st16 st17">muscular</text>
	</g>
</g>
<g class="st15">
	<g>
		<text transform="matrix(1 0 0 1 404.2847 624.1448)" class="st2 st16 st17">Debilidad </text>
		<text transform="matrix(1 0 0 1 404.2847 640.9448)" class="st2 st16 st17">muscular</text>
	</g>
</g>
<g class="st15">
	<g>
		<text transform="matrix(1 0 0 1 601.2825 699.414)" class="st2 st16 st17">Luz azul</text>
	</g>
</g>
<g>
	<g>
		
			<linearGradient id="SVGID_8_" gradientUnits="userSpaceOnUse" x1="497.1924" y1="4198.1934" x2="603.6924" y2="4230.6016" gradientTransform="matrix(1 0 0 -1 0 4547.2754)">
			<stop  offset="1.800003e-03" style="stop-color:#CEB98E"/>
			<stop  offset="0.161" style="stop-color:#DACAAA;stop-opacity:0.8405"/>
			<stop  offset="0.4075" style="stop-color:#EAE1CF;stop-opacity:0.5935"/>
			<stop  offset="0.6374" style="stop-color:#F6F1E9;stop-opacity:0.3633"/>
			<stop  offset="0.8419" style="stop-color:#FDFBF9;stop-opacity:0.1584"/>
			<stop  offset="1" style="stop-color:#FFFFFF;stop-opacity:0"/>
		</linearGradient>
		<path class="st18" d="M493.9,318.1c11.6,4.4,23.2,8.6,34.8,12.7c11.7,4,23.4,7.8,35.3,11c5.9,1.6,11.9,3,17.9,4.1c3,0.5,6,1,9,1.2
			s6,0.3,8.9-0.2c1.4-0.3,2.7-0.7,3.7-1.4c1-0.7,1.4-1.8,1.4-3.1c-0.1-1.3-0.6-2.7-1.2-4c-0.7-1.3-1.5-2.6-2.4-3.8
			c-1.8-2.4-3.9-4.7-6.1-6.9c-2.2-2.2-4.2-4.6-6.4-6.8l7.1,6c2.4,2,4.6,4.2,6.7,6.6c1,1.2,2,2.5,2.8,3.9s1.5,2.9,1.8,4.7
			c0.1,0.9,0,1.9-0.3,2.8s-1,1.8-1.7,2.4c-1.5,1.2-3.1,1.8-4.7,2.2c-3.3,0.8-6.5,0.9-9.7,0.8s-6.3-0.3-9.5-0.7
			c-6.3-0.7-12.4-1.8-18.6-3c-12.3-2.5-24.3-5.5-36.4-8.8c-12-3.3-24-6.8-35.9-10.5L493.9,318.1z"/>
		<g>
			
				<linearGradient id="SVGID_9_" gradientUnits="userSpaceOnUse" x1="489.6825" y1="4222.8721" x2="596.1827" y2="4255.2808" gradientTransform="matrix(1 0 0 -1 0 4547.2754)">
				<stop  offset="1.800003e-03" style="stop-color:#CEB98E"/>
				<stop  offset="0.161" style="stop-color:#DACAAA;stop-opacity:0.8405"/>
				<stop  offset="0.4075" style="stop-color:#EAE1CF;stop-opacity:0.5935"/>
				<stop  offset="0.6374" style="stop-color:#F6F1E9;stop-opacity:0.3633"/>
				<stop  offset="0.8419" style="stop-color:#FDFBF9;stop-opacity:0.1584"/>
				<stop  offset="1" style="stop-color:#FFFFFF;stop-opacity:0"/>
			</linearGradient>
			<polygon class="st19" points="491.8,333.2 478.7,318.2 498.3,314.4 			"/>
		</g>
	</g>
</g>
<g>
	<g>
		<text transform="matrix(1 0 0 1 562.4189 448.5581)" class="st2 st9 st10">Visión</text>
		<text transform="matrix(1 0 0 1 562.4189 467.7581)" class="st2 st9 st10">borrosa</text>
	</g>
</g>
<g>
	<text transform="matrix(1 0 0 1 569.7952 953.2563)" class="st2 st9 st10">Pérdida de</text>
	<text transform="matrix(1 0 0 1 569.7952 972.4562)" class="st2 st9 st10">capacidad</text>
	<text transform="matrix(1 0 0 1 569.7952 991.6563)" class="st2 st9 st10">pulmonar</text>
</g>
<g id="light">
	
		<linearGradient id="SVGID_10_" gradientUnits="userSpaceOnUse" x1="507.1844" y1="4096.1895" x2="717.05" y2="3839.7458" gradientTransform="matrix(1 0 0 -1 0 4547.2754)">
		<stop  offset="0" style="stop-color:#FFFFFF;stop-opacity:0"/>
		<stop  offset="0.1497" style="stop-color:#FBFDFF;stop-opacity:8.980000e-02"/>
		<stop  offset="0.2828" style="stop-color:#F1F8FF;stop-opacity:0.1697"/>
		<stop  offset="0.4096" style="stop-color:#DEEFFF;stop-opacity:0.2458"/>
		<stop  offset="0.5326" style="stop-color:#C5E2FF;stop-opacity:0.3196"/>
		<stop  offset="0.6529" style="stop-color:#A4D1FF;stop-opacity:0.3917"/>
		<stop  offset="0.771" style="stop-color:#7BBDFF;stop-opacity:0.4626"/>
		<stop  offset="0.8856" style="stop-color:#4CA6FF;stop-opacity:0.5314"/>
		<stop  offset="0.9981" style="stop-color:#168AFF;stop-opacity:0.5988"/>
		<stop  offset="1" style="stop-color:#158AFF;stop-opacity:0.6"/>
	</linearGradient>
	<path class="st20" d="M568,397c1-2-1-6,0-9c6.9-16.9,10.3-34.2,11.7-51.7l116,374.6L654,722.2l-9,1.4l-64.1,20.9L449.4,536.6l0,0
		c3.7-3.1,8.3-4.5,11.6-8.6c4-5,16,2,20-3c3-4,6-12,12-12c-1-3,2-4,3-5c2-1,4-1,5-2c2-7-1-19,6-20c10,0,25,6,28-6c4-17-2-34,4-49
		c1-3,10-10,10-17L568,397z"/>
	<g class="st15">
		
			<linearGradient id="SVGID_11_" gradientUnits="userSpaceOnUse" x1="475.6559" y1="4027.7644" x2="478.4626" y2="4020.0752" gradientTransform="matrix(1 0 0 -1 0 4547.2754)">
			<stop  offset="0" style="stop-color:#FFFFFF;stop-opacity:0"/>
			<stop  offset="0.1043" style="stop-color:#FAFCFF;stop-opacity:6.260000e-02"/>
			<stop  offset="0.2346" style="stop-color:#EAF5FF;stop-opacity:0.1408"/>
			<stop  offset="0.3789" style="stop-color:#D1E8FF;stop-opacity:0.2273"/>
			<stop  offset="0.5333" style="stop-color:#ADD6FF;stop-opacity:0.32"/>
			<stop  offset="0.6957" style="stop-color:#7FBFFF;stop-opacity:0.4174"/>
			<stop  offset="0.8622" style="stop-color:#48A4FF;stop-opacity:0.5173"/>
			<stop  offset="1" style="stop-color:#158AFF;stop-opacity:0.6"/>
		</linearGradient>
		<path class="st21" d="M467.3,525.7c0,0,9.5,2.7,13.2-0.2s3.8-11.4,3.8-11.4S480.3,524.8,467.3,525.7z"/>
		
			<linearGradient id="SVGID_12_" gradientUnits="userSpaceOnUse" x1="428.3856" y1="4023.5142" x2="436.2401" y2="4001.9966" gradientTransform="matrix(1 0 0 -1 0 4547.2754)">
			<stop  offset="0" style="stop-color:#FFFFFF;stop-opacity:0"/>
			<stop  offset="0.1892" style="stop-color:#FCFEFF;stop-opacity:0.1135"/>
			<stop  offset="0.3264" style="stop-color:#F3F9FF;stop-opacity:0.1958"/>
			<stop  offset="0.4472" style="stop-color:#E3F1FF;stop-opacity:0.2683"/>
			<stop  offset="0.5585" style="stop-color:#CDE6FF;stop-opacity:0.3351"/>
			<stop  offset="0.6634" style="stop-color:#B0D7FF;stop-opacity:0.3981"/>
			<stop  offset="0.7635" style="stop-color:#8CC6FF;stop-opacity:0.4581"/>
			<stop  offset="0.8598" style="stop-color:#62B0FF;stop-opacity:0.5159"/>
			<stop  offset="0.9507" style="stop-color:#3299FF;stop-opacity:0.5704"/>
			<stop  offset="1" style="stop-color:#158AFF;stop-opacity:0.6"/>
		</linearGradient>
		<path class="st22" d="M402.7,526.9c0,0,14.5,12.2,27.6,13.6c13.1,1.3,13.3,2.6,27.6-9.4C457.8,531,435.6,544.9,402.7,526.9z"/>
		
			<linearGradient id="SVGID_13_" gradientUnits="userSpaceOnUse" x1="493.5952" y1="4050.5898" x2="499.2111" y2="4035.2048" gradientTransform="matrix(1 0 0 -1 0 4547.2754)">
			<stop  offset="0" style="stop-color:#FFFFFF;stop-opacity:0"/>
			<stop  offset="0.1892" style="stop-color:#FCFEFF;stop-opacity:0.1135"/>
			<stop  offset="0.3264" style="stop-color:#F3F9FF;stop-opacity:0.1958"/>
			<stop  offset="0.4472" style="stop-color:#E3F1FF;stop-opacity:0.2683"/>
			<stop  offset="0.5585" style="stop-color:#CDE6FF;stop-opacity:0.3351"/>
			<stop  offset="0.6634" style="stop-color:#B0D7FF;stop-opacity:0.3981"/>
			<stop  offset="0.7635" style="stop-color:#8CC6FF;stop-opacity:0.4581"/>
			<stop  offset="0.8598" style="stop-color:#62B0FF;stop-opacity:0.5159"/>
			<stop  offset="0.9507" style="stop-color:#3299FF;stop-opacity:0.5704"/>
			<stop  offset="1" style="stop-color:#158AFF;stop-opacity:0.6"/>
		</linearGradient>
		<path class="st23" d="M487.2,514.1c0,0,11.2,0.1,12.3-9.1c1-9.2,3.9-16.4,3.9-16.4s-5.5,6.3-6.7,15.2
			C495.5,512.7,487.2,514.1,487.2,514.1z"/>
		
			<linearGradient id="SVGID_14_" gradientUnits="userSpaceOnUse" x1="521.8756" y1="4093.866" x2="535.1229" y2="4057.5747" gradientTransform="matrix(1 0 0 -1 0 4547.2754)">
			<stop  offset="0" style="stop-color:#FFFFFF;stop-opacity:0"/>
			<stop  offset="0.1892" style="stop-color:#FCFEFF;stop-opacity:0.1135"/>
			<stop  offset="0.3264" style="stop-color:#F3F9FF;stop-opacity:0.1958"/>
			<stop  offset="0.4472" style="stop-color:#E3F1FF;stop-opacity:0.2683"/>
			<stop  offset="0.5585" style="stop-color:#CDE6FF;stop-opacity:0.3351"/>
			<stop  offset="0.6634" style="stop-color:#B0D7FF;stop-opacity:0.3981"/>
			<stop  offset="0.7635" style="stop-color:#8CC6FF;stop-opacity:0.4581"/>
			<stop  offset="0.8598" style="stop-color:#62B0FF;stop-opacity:0.5159"/>
			<stop  offset="0.9507" style="stop-color:#3299FF;stop-opacity:0.5704"/>
			<stop  offset="1" style="stop-color:#158AFF;stop-opacity:0.6"/>
		</linearGradient>
		<path class="st24" d="M512.9,487c0,0,9.6,3.9,16.8,1.6c7.2-2.3,7.1-11.4,6.8-26.3c-0.3-14.9,0.7-25.1,0.7-25.1s-4.5,13.9-4.7,27.8
			S533.5,485.7,512.9,487z"/>
		
			<linearGradient id="SVGID_15_" gradientUnits="userSpaceOnUse" x1="542.3408" y1="4129.3809" x2="547.1457" y2="4116.2178" gradientTransform="matrix(1 0 0 -1 0 4547.2754)">
			<stop  offset="0" style="stop-color:#FFFFFF;stop-opacity:0"/>
			<stop  offset="0.1892" style="stop-color:#FCFEFF;stop-opacity:0.1135"/>
			<stop  offset="0.3264" style="stop-color:#F3F9FF;stop-opacity:0.1958"/>
			<stop  offset="0.4472" style="stop-color:#E3F1FF;stop-opacity:0.2683"/>
			<stop  offset="0.5585" style="stop-color:#CDE6FF;stop-opacity:0.3351"/>
			<stop  offset="0.6634" style="stop-color:#B0D7FF;stop-opacity:0.3981"/>
			<stop  offset="0.7635" style="stop-color:#8CC6FF;stop-opacity:0.4581"/>
			<stop  offset="0.8598" style="stop-color:#62B0FF;stop-opacity:0.5159"/>
			<stop  offset="0.9507" style="stop-color:#3299FF;stop-opacity:0.5704"/>
			<stop  offset="1" style="stop-color:#158AFF;stop-opacity:0.6"/>
		</linearGradient>
		<path class="st25" d="M538.2,433.2c0,0,12.7-6.1,11.5-21.8C549.8,411.3,547.1,423.5,538.2,433.2z"/>
		
			<linearGradient id="SVGID_16_" gradientUnits="userSpaceOnUse" x1="905.637" y1="4197.5977" x2="907.6906" y2="4191.9717" gradientTransform="matrix(0.9932 -0.1168 -0.1168 -0.9932 57.6185 4776.9438)">
			<stop  offset="0" style="stop-color:#FFFFFF;stop-opacity:0"/>
			<stop  offset="0.1892" style="stop-color:#FCFEFF;stop-opacity:0.1135"/>
			<stop  offset="0.3264" style="stop-color:#F3F9FF;stop-opacity:0.1958"/>
			<stop  offset="0.4472" style="stop-color:#E3F1FF;stop-opacity:0.2683"/>
			<stop  offset="0.5585" style="stop-color:#CDE6FF;stop-opacity:0.3351"/>
			<stop  offset="0.6634" style="stop-color:#B0D7FF;stop-opacity:0.3981"/>
			<stop  offset="0.7635" style="stop-color:#8CC6FF;stop-opacity:0.4581"/>
			<stop  offset="0.8598" style="stop-color:#62B0FF;stop-opacity:0.5159"/>
			<stop  offset="0.9507" style="stop-color:#3299FF;stop-opacity:0.5704"/>
			<stop  offset="1" style="stop-color:#158AFF;stop-opacity:0.6"/>
		</linearGradient>
		<path class="st26" d="M486.2,490.6c0,0-1.1,13.4-37.8,24.9"/>
		
			<linearGradient id="SVGID_17_" gradientUnits="userSpaceOnUse" x1="2318.6094" y1="4375.8677" x2="2321.2561" y2="4368.6172" gradientTransform="matrix(0.894 -0.4481 -0.4481 -0.894 395.9712 5414.2671)">
			<stop  offset="0" style="stop-color:#FFFFFF;stop-opacity:0"/>
			<stop  offset="0.1892" style="stop-color:#FCFEFF;stop-opacity:0.1135"/>
			<stop  offset="0.3264" style="stop-color:#F3F9FF;stop-opacity:0.1958"/>
			<stop  offset="0.4472" style="stop-color:#E3F1FF;stop-opacity:0.2683"/>
			<stop  offset="0.5585" style="stop-color:#CDE6FF;stop-opacity:0.3351"/>
			<stop  offset="0.6634" style="stop-color:#B0D7FF;stop-opacity:0.3981"/>
			<stop  offset="0.7635" style="stop-color:#8CC6FF;stop-opacity:0.4581"/>
			<stop  offset="0.8598" style="stop-color:#62B0FF;stop-opacity:0.5159"/>
			<stop  offset="0.9507" style="stop-color:#3299FF;stop-opacity:0.5704"/>
			<stop  offset="1" style="stop-color:#158AFF;stop-opacity:0.6"/>
		</linearGradient>
		<path class="st27" d="M526.4,440.8c0,0,4.6,16.7-34.8,46.8"/>
	</g>
</g>
<g>
	
		<linearGradient id="SVGID_18_" gradientUnits="userSpaceOnUse" x1="170.1367" y1="1007.0279" x2="170.1367" y2="1086.7889" gradientTransform="matrix(1 0 0 -1 0 1971.2756)">
		<stop  offset="0" style="stop-color:#FFFFFF;stop-opacity:0"/>
		<stop  offset="0.1413" style="stop-color:#FFFFFF;stop-opacity:0.1413"/>
		<stop  offset="1" style="stop-color:#FFFFFF"/>
	</linearGradient>
	<path class="st28" d="M190.5,964.2L190.5,964.2c0,0,0.8-10.8-1.6-17.2c-2.4-6.5-5-6.9-8.8-10.4s-7.8-6.6-7.7-9.3s0.9-5.2,0.9-7.2
		c0.1-2,1.2-2.6,3.4-2.6s4.8,1.1,6.3,0.3s0.4-3,0.8-3.7s1.5-0.9,1.4-1.2c-0.1-0.4-0.7-1-1.5-1c0,0,1.6-1,1.6-1.5
		c0,0-0.5-1.3-1.1-1.9c0,0,2.8-1.3,2.6-2.2s-0.9-1.6-1.8-2.6c-0.9-1-2.4-2.4-2.5-3.3c-0.1-0.9,0.3-1.7,0.3-2.5s0.1-1.5-0.4-2.8
		c-0.6-1.3-0.6-1.3-0.6-1.3s-1.3-3-2.2-4.2s-3.3-5.2-12.1-5.1c0,0-7.1-1-11.6,5.1s-2.8,12.5-1.3,15s5.6,5.5,4.7,12.1
		s-1.9,8.8-5.9,17.8c-7,15.7-2.3,28-1.5,29.6"/>
	
		<linearGradient id="SVGID_19_" gradientUnits="userSpaceOnUse" x1="170.1367" y1="1006.7779" x2="170.1367" y2="1087.0389" gradientTransform="matrix(1 0 0 -1 0 1971.2756)">
		<stop  offset="0" style="stop-color:#FFFFFF;stop-opacity:0"/>
		<stop  offset="1" style="stop-color:#FFFFFF"/>
	</linearGradient>
	<path class="st29" d="M190.5,964.2L190.5,964.2c0,0,0.8-10.8-1.6-17.2c-2.4-6.5-5-6.9-8.8-10.4s-7.8-6.6-7.7-9.3s0.9-5.2,0.9-7.2
		c0.1-2,1.2-2.6,3.4-2.6s4.8,1.1,6.3,0.3s0.4-3,0.8-3.7s1.5-0.9,1.4-1.2c-0.1-0.4-0.7-1-1.5-1c0,0,1.6-1,1.6-1.5
		c0,0-0.5-1.3-1.1-1.9c0,0,2.8-1.3,2.6-2.2s-0.9-1.6-1.8-2.6c-0.9-1-2.4-2.4-2.5-3.3c-0.1-0.9,0.3-1.7,0.3-2.5s0.1-1.5-0.4-2.8
		c-0.6-1.3-0.6-1.3-0.6-1.3s-1.3-3-2.2-4.2s-3.3-5.2-12.1-5.1c0,0-7.1-1-11.6,5.1s-2.8,12.5-1.3,15s5.6,5.5,4.7,12.1
		s-1.9,8.8-5.9,17.8c-7,15.7-2.3,28-1.5,29.6"/>
	<g>
		<path class="st30" d="M164.9,911.5c0.1,3.7-0.4,7.4-1.1,11.1c-0.7,3.7-1.5,7.3-2.6,10.9l-1.6,5.3c-0.5,1.7-0.9,3.5-1.3,5.2
			c-0.7,3.5-0.9,7.1-0.5,10.6c0.3,3.5,1.2,7,2.2,10.6c0.5,1.8,1,3.5,1.5,5.3s1.1,3.5,1.5,5.4c0.9,3.7,1.4,7.4,1.3,11.2
			c-0.1,1.9-0.3,3.8-0.8,5.6c-0.5,1.8-1.2,3.6-2.4,5.1c0.5-0.8,0.8-1.7,1-2.6c0.3-0.9,0.4-1.8,0.6-2.7c0.2-1.8,0.3-3.6,0.2-5.4
			c-0.2-3.6-1-7.2-2.1-10.6c-2.2-6.9-5.1-13.9-5.9-21.6c-0.4-3.8-0.1-7.7,0.7-11.5c0.8-3.7,2.2-7.3,3.5-10.7
			c1.2-3.4,2.4-6.9,3.4-10.5C163.4,918.7,164.3,915.1,164.9,911.5z"/>
	</g>
</g>
<g>
	
		<linearGradient id="SVGID_20_" gradientUnits="userSpaceOnUse" x1="243.0504" y1="1007.0279" x2="243.0504" y2="1084.5494" gradientTransform="matrix(1 0 0 -1 0 1971.2756)">
		<stop  offset="0" style="stop-color:#FFFFFF;stop-opacity:0"/>
		<stop  offset="0.1413" style="stop-color:#FFFFFF;stop-opacity:0.1413"/>
		<stop  offset="1" style="stop-color:#FFFFFF"/>
	</linearGradient>
	<path class="st31" d="M256.4,964.2h0.1c0,0,1.9-11-2.9-19.5c-4.8-8.6-11.5-8.6-12.1-16.8c-0.2-2.7,3.7-3.8,4.8-5.4
		c1.1-1.6,2.4-1.4,4.3-0.2c1.8,1.2,3.3,3.6,5,3.7c1.7,0.1,2-2.3,2.7-2.6s1.8,0.1,1.9-0.2c0.1-0.4,0-1.2-0.7-1.7c0,0,1.9,0.1,2.2-0.3
		c0,0,0.3-1.3,0.1-2.2c0,0,3,0.5,3.4-0.4s0.1-1.8,0-3.2c-0.2-1.3-0.7-3.3-0.3-4.1s1.2-1.3,1.7-1.9s1-1.2,1.2-2.6s0.2-1.4,0.2-1.4
		s0.6-3.2,0.5-4.7c0-1.4,0.1-6.2-7.2-11c0,0-5.3-4.8-12.5-2.3c-7.2,2.5-9.4,8.8-9.5,11.8s1.6,7.7-2.9,12.7c0,0-11.6,10.3-14.9,17.9
		c-3.4,7.6-4.6,13.2-3.6,18.6c1,5.4,2.3,12.3,2.3,15.8"/>
	
		<linearGradient id="SVGID_21_" gradientUnits="userSpaceOnUse" x1="243.0504" y1="1006.7779" x2="243.0504" y2="1084.7994" gradientTransform="matrix(1 0 0 -1 0 1971.2756)">
		<stop  offset="0" style="stop-color:#FFFFFF;stop-opacity:0"/>
		<stop  offset="1" style="stop-color:#FFFFFF"/>
	</linearGradient>
	<path class="st32" d="M256.4,964.2h0.1c0,0,1.9-11-2.9-19.5c-4.8-8.6-11.5-8.6-12.1-16.8c-0.2-2.7,3.7-3.8,4.8-5.4
		c1.1-1.6,2.4-1.4,4.3-0.2c1.8,1.2,3.3,3.6,5,3.7c1.7,0.1,2-2.3,2.7-2.6s1.8,0.1,1.9-0.2c0.1-0.4,0-1.2-0.7-1.7c0,0,1.9,0.1,2.2-0.3
		c0,0,0.3-1.3,0.1-2.2c0,0,3,0.5,3.4-0.4s0.1-1.8,0-3.2c-0.2-1.3-0.7-3.3-0.3-4.1s1.2-1.3,1.7-1.9s1-1.2,1.2-2.6s0.2-1.4,0.2-1.4
		s0.6-3.2,0.5-4.7c0-1.4,0.1-6.2-7.2-11c0,0-5.3-4.8-12.5-2.3c-7.2,2.5-9.4,8.8-9.5,11.8s1.6,7.7-2.9,12.7c0,0-11.6,10.3-14.9,17.9
		c-3.4,7.6-4.6,13.2-3.6,18.6c1,5.4,2.3,12.3,2.3,15.8"/>
	<g>
		<path class="st30" d="M244.5,910.2c0,2-0.7,4.1-1.8,5.8c-1.1,1.8-2.7,3.2-4.5,4.4l-2.6,1.5l-1.1,0.8l-1.1,0.9
			c-1.4,1.3-2.6,2.8-3.6,4.5c-1.1,1.6-1.8,3.4-2.6,5.2c-0.6,1.8-1.2,3.7-1.5,5.6c-0.7,3.8-0.7,7.7-0.1,11.6
			c0.5,3.9,1.5,7.7,2.6,11.5s2.6,7.6,3.5,11.6c0.2,1,0.5,2,0.6,3.1l0.2,1.5c0.1,0.5,0.1,1,0.1,1.6c0.1,1,0.1,2.1,0,3.1
			c0,1-0.1,2.1-0.3,3.1c-0.6,4.1-1.8,8-3.2,11.8c0.9-3.9,1.6-7.9,1.8-11.9s-0.3-7.9-1.4-11.6c-1.1-3.8-2.7-7.5-4-11.4
			s-2.3-7.9-2.9-12c-0.5-4.1-0.5-8.4,0.3-12.5c0.4-2.1,1.1-4.1,1.8-6c0.9-1.9,1.8-3.8,3.1-5.5c1.2-1.7,2.6-3.3,4.3-4.6l1.3-0.9
			c0.4-0.3,0.9-0.6,1.4-0.8l1.4-0.7l1.3-0.6c1.7-0.9,3.3-2.1,4.5-3.6C243.2,914,244.1,912.2,244.5,910.2z"/>
	</g>
</g>
<g class="st15">
	<text transform="matrix(1 0 0 1 140.2348 1018.1984)" class="st2 st16 st17">Curvatura</text>
	<text transform="matrix(1 0 0 1 140.2348 1034.9984)" class="st2 st16 st17">normal</text>
</g>
<g class="st15">
	<text transform="matrix(1 0 0 1 224.4834 1018.1984)" class="st2 st16 st17">Curvatura</text>
	<text transform="matrix(1 0 0 1 224.4834 1034.9984)" class="st2 st16 st17">extrema</text>
</g>
<g>
	<rect x="159.9" y="414.5" class="st4" width="90.5" height="64.1"/>
	<text transform="matrix(1 0 0 1 163.9634 434.5036)" class="st2 st9 st10">Tensión en </text>
	<text transform="matrix(1 0 0 1 163.9634 453.7036)" class="st2 st9 st10">la columna </text>
	<text transform="matrix(1 0 0 1 163.9634 472.9036)" class="st2 st9 st10">vertebral</text>
</g>
<line class="st33" x1="236.4" y1="920.5" x2="276.5" y2="880.4"/>
<g>
	<text transform="matrix(1 0 0 1 267.4433 876.2916)" class="st34 st9 st17">45°</text>
</g>
<g>
	<text transform="matrix(1 0 0 1 628.7493 173.2161)" class="st34 st9 st17">45°</text>
</g>
<line class="st33" x1="565.2" y1="248.8" x2="634" y2="179.9"/>
<linearGradient id="SVGID_22_" gradientUnits="userSpaceOnUse" x1="534.6232" y1="988.1579" x2="534.6232" y2="1002.6779" gradientTransform="matrix(1 0 0 -1 0 1971.2756)">
	<stop  offset="0" style="stop-color:#FFFFFF;stop-opacity:0"/>
	<stop  offset="0.1413" style="stop-color:#FFFFFF;stop-opacity:0.1413"/>
	<stop  offset="1" style="stop-color:#FFFFFF"/>
</linearGradient>
<path class="st35" d="M538.8,976l-0.2-0.4c-0.6-1-1.4-1.7-1.6-2.4c0,0-1.6-0.9-2.2-1.4c0,0-3.3-1.3-4.6-3.2c0,0-0.6,5.6-0.3,7.8
	s0.2,6.7,0.2,6.7s4.8,0,6.4,0c0.3-1.4,2.9-2.5,2.9-4.7C539.3,977.4,539.1,976.6,538.8,976z"/>
<linearGradient id="SVGID_23_" gradientUnits="userSpaceOnUse" x1="515.0318" y1="979.6078" x2="515.0318" y2="1024.6079" gradientTransform="matrix(1 0 0 -1 0 1971.2756)">
	<stop  offset="0" style="stop-color:#FFFFFF;stop-opacity:0"/>
	<stop  offset="0.1413" style="stop-color:#FFFFFF;stop-opacity:0.1413"/>
	<stop  offset="1" style="stop-color:#FFFFFF"/>
</linearGradient>
<path class="st36" d="M504.7,973.8c0,0,0.3-3.5,0.3-4.4c0-1,0-2,0.6-2.6c0.6-0.7,0.2-3.2,1.1-4.2c1-1-0.2-0.8,0.5-2.2
	c0.6-1.5,1.7-1.7,2-3s0.5-2.8,4.7-6.4c4.2-3.6,5.5-4.3,6.6-4.3s2.6,0.1,3.1,2.9c0.5,2.8,1,2.6,1,4.7s-0.4,5.7-0.4,5.7
	s1.7,2.1,1.7,3.4v8.9c0,0,0.9,4.5-1.8,7.2s-4.9,5.6-8.1,5.6c0,0-4.8,6.6-8.7,6.6s-2.9-3.8-2.9-3.8S503.3,977,504.7,973.8z"/>
<g class="st37">
	
		<linearGradient id="SVGID_24_" gradientUnits="userSpaceOnUse" x1="540.5106" y1="980.8903" x2="540.5106" y2="1025.3008" gradientTransform="matrix(1 0 0 -1 0 1971.2756)">
		<stop  offset="0" style="stop-color:#FFFFFF;stop-opacity:0"/>
		<stop  offset="0.1413" style="stop-color:#FFFFFF;stop-opacity:0.1413"/>
		<stop  offset="1" style="stop-color:#FFFFFF"/>
	</linearGradient>
	<path class="st38" d="M529.4,958.6c-0.2-0.7-1.2-5.3-0.6-7.7c0.6-2.5,1.5-6.8,6.9-4.4s3.9,2.9,5.6,4.5c1.7,1.7,2.2,2.4,4.7,5.8
		c2.5,3.4,3.4,5,3.7,8.9s1.6,0.9,1.6,5s0.8,5.9,0.8,7.9s-0.7,4.2-0.4,4.9s-0.6,3.7,0.2,4.4s0.9,3-2.1,2.1c0,0-6.3-1.7-8.6-5.3
		c-1.7,0.4-3.8,0.7-4.6-0.4c-0.3-0.4-0.4-0.8-0.3-1.1c0.3-1.4,2.9-2.5,2.9-4.7c0-1-0.2-1.7-0.6-2.4c-0.1-0.2-0.2-0.3-0.2-0.4
		c-0.6-1-1.4-1.7-1.6-2.4c0,0-1.6-0.9-2.2-1.4c0,0-3.3-1.3-4.6-3.2c-0.2-0.2-0.3-0.5-0.4-0.7c-0.9-2.3-0.9-4.6-0.5-7.2
		c0.2-1.5,0.3-1.9,0.4-2L529.4,958.6L529.4,958.6z"/>
</g>
<linearGradient id="SVGID_25_" gradientUnits="userSpaceOnUse" x1="527.7151" y1="1009.5278" x2="527.7151" y2="1036.1279" gradientTransform="matrix(1 0 0 -1 0 1971.2756)">
	<stop  offset="0" style="stop-color:#FFFFFF;stop-opacity:0"/>
	<stop  offset="0.1413" style="stop-color:#FFFFFF;stop-opacity:0.1413"/>
	<stop  offset="1" style="stop-color:#FFFFFF"/>
</linearGradient>
<path class="st39" d="M528.2,935.1c0,0,0.8,5,0.3,8.3s-0.5,7.1,0.1,12.2l3.6,2.7l-2.8,3.4l-2.7-2.4l-2.4,2.4l-1.1-3
	c0,0,2.2-1.3,2.2-4.3s-0.3-6.6-0.3-10.9c0-3-0.2-5.8-0.2-8.3"/>
<linearGradient id="SVGID_26_" gradientUnits="userSpaceOnUse" x1="534.6232" y1="988.1579" x2="534.6232" y2="1002.6779" gradientTransform="matrix(1 0 0 -1 0 1971.2756)">
	<stop  offset="0" style="stop-color:#FFFFFF;stop-opacity:0"/>
	<stop  offset="0.1413" style="stop-color:#FFFFFF;stop-opacity:0.1413"/>
	<stop  offset="1" style="stop-color:#FFFFFF"/>
</linearGradient>
<path class="st40" d="M538.8,976l-0.2-0.4c-0.6-1-1.4-1.7-1.6-2.4c0,0-1.6-0.9-2.2-1.4c0,0-3.3-1.3-4.6-3.2c0,0-0.6,5.6-0.3,7.8
	s0.2,6.7,0.2,6.7s4.8,0,6.4,0c0.3-1.4,2.9-2.5,2.9-4.7C539.3,977.4,539.1,976.6,538.8,976z"/>
<linearGradient id="SVGID_27_" gradientUnits="userSpaceOnUse" x1="515.0318" y1="979.3578" x2="515.0318" y2="1024.8579" gradientTransform="matrix(1 0 0 -1 0 1971.2756)">
	<stop  offset="0" style="stop-color:#FFFFFF;stop-opacity:0"/>
	<stop  offset="1" style="stop-color:#FFFFFF"/>
</linearGradient>
<path class="st41" d="M504.7,973.8c0,0,0.3-3.5,0.3-4.4c0-1,0-2,0.6-2.6c0.6-0.7,0.2-3.2,1.1-4.2c1-1-0.2-0.8,0.5-2.2
	c0.6-1.5,1.7-1.7,2-3s0.5-2.8,4.7-6.4c4.2-3.6,5.5-4.3,6.6-4.3s2.6,0.1,3.1,2.9c0.5,2.8,1,2.6,1,4.7s-0.4,5.7-0.4,5.7
	s1.7,2.1,1.7,3.4v8.9c0,0,0.9,4.5-1.8,7.2s-4.9,5.6-8.1,5.6c0,0-4.8,6.6-8.7,6.6s-2.9-3.8-2.9-3.8S503.3,977,504.7,973.8z"/>
<g class="st42">
	
		<linearGradient id="SVGID_28_" gradientUnits="userSpaceOnUse" x1="540.5106" y1="980.6403" x2="540.5106" y2="1025.5508" gradientTransform="matrix(1 0 0 -1 0 1971.2756)">
		<stop  offset="0" style="stop-color:#FFFFFF;stop-opacity:0"/>
		<stop  offset="1" style="stop-color:#FFFFFF"/>
	</linearGradient>
	<path class="st43" d="M529.4,958.6c-0.2-0.7-1.2-5.3-0.6-7.7c0.6-2.5,1.5-6.8,6.9-4.4s3.9,2.9,5.6,4.5c1.7,1.7,2.2,2.4,4.7,5.8
		c2.5,3.4,3.4,5,3.7,8.9s1.6,0.9,1.6,5s0.8,5.9,0.8,7.9s-0.7,4.2-0.4,4.9s-0.6,3.7,0.2,4.4s0.9,3-2.1,2.1c0,0-6.3-1.7-8.6-5.3
		c-1.7,0.4-3.8,0.7-4.6-0.4c-0.3-0.4-0.4-0.8-0.3-1.1c0.3-1.4,2.9-2.5,2.9-4.7c0-1-0.2-1.7-0.6-2.4c-0.1-0.2-0.2-0.3-0.2-0.4
		c-0.6-1-1.4-1.7-1.6-2.4c0,0-1.6-0.9-2.2-1.4c0,0-3.3-1.3-4.6-3.2c-0.2-0.2-0.3-0.5-0.4-0.7c-0.9-2.3-0.9-4.6-0.5-7.2
		c0.2-1.5,0.3-1.9,0.4-2L529.4,958.6L529.4,958.6z"/>
</g>
<linearGradient id="SVGID_29_" gradientUnits="userSpaceOnUse" x1="527.7151" y1="1009.5278" x2="527.7151" y2="1036.1279" gradientTransform="matrix(1 0 0 -1 0 1971.2756)">
	<stop  offset="0" style="stop-color:#FFFFFF;stop-opacity:0"/>
	<stop  offset="0.1413" style="stop-color:#FFFFFF;stop-opacity:0.1413"/>
	<stop  offset="1" style="stop-color:#FFFFFF"/>
</linearGradient>
<path class="st44" d="M528.2,935.1c0,0,0.8,5,0.3,8.3s-0.5,7.1,0.1,12.2l3.6,2.7l-2.8,3.4l-2.7-2.4l-2.4,2.4l-1.1-3
	c0,0,2.2-1.3,2.2-4.3s-0.3-6.6-0.3-10.9c0-3-0.2-5.8-0.2-8.3"/>
<rect x="502.9" y="930.9" class="st45" width="50.3" height="25.8"/>
<line class="st33" x1="501.7" y1="957.2" x2="556" y2="957.2"/>
<g>
	<text transform="matrix(1 0 0 1 515.0132 945.8686)" class="st34 st9 st17">30%</text>
</g>
</svg>
